<svg version="1.2" xmlns="http://www.w3.org/2000/svg" viewBox="0 0 960 960" width="256" height="256">
	<title>shopping_cart-svg</title>
	<style>
		.s0 { fill: #339933 } 
		.s1 { fill: #ccffcc } 
	</style>
	<path id="Layer 1" class="s0" d="m960 893.8c0 36.5-29.6 66.1-66.1 66.1h-827.8c-36.5 0-66.1-29.6-66.1-66.1v-827.8c0-36.5 29.6-66.1 66.1-66.1h827.8c36.5 0 66.1 29.6 66.1 66.1z"/>
	<path id="  Grocer" class="s1" aria-label=" 
Grocer"  d="m217.5 684.3v37.2h-12.5v50q-11 6.3-32.3 11.3-21 4.7-45.5 4.7-46.7 0-73.2-24.5-26.5-24.7-26.5-76.2 0-52.8 26.2-76.8 26.5-24 75.5-24 23.8 0 44.5 5 20.8 5 31.3 11.3v59.7h-62.5v-11.7q0-10.5-4.5-15-4.3-4.8-13.8-4.8-9.5 0-14 4.8-4.2 4.5-4.2 15v73q0 10.5 4.2 15.2 4.5 4.5 14 4.5 9.5 0 13.8-4.5 4.5-4.7 4.5-15.2v-1.8h-13.5v-37.2zm113.2-42.8q5 0 9.5 1 4.5 1 7.5 2.5v47.8q-10.2-4.3-22-4.3-15.7 0-24.2 8.3-8.5 8.2-8.5 24.5v21.7h22.5v41h-91v-41h11v-57h-11v-41h68.5v18.3q7-10.5 16-16 9-5.8 21.7-5.8zm99.5 146q-35.5 0-55.5-18.5-20-18.7-20-54.5 0-35.7 20-54.2 20-18.8 55.5-18.8 36 0 55.8 19 19.7 18.8 19.7 54 0 35.8-20 54.5-20 18.5-55.5 18.5zm0-44.5q7.3 0 10.8-3.7 3.7-4 3.7-12.3v-25q0-8.2-3.7-12-3.5-4-10.8-4-7.2 0-11 4-3.5 3.8-3.5 12v25q0 8.3 3.5 12.3 3.8 3.7 11 3.7zm158.3 44.5q-35.8 0-55.8-18.5-20-18.7-20-54.5 0-35.7 20-54.2 20-18.8 55.5-18.8 17.3 0 33 4.8 15.8 4.7 24.5 10.7v49.5h-43v-4.5q0-8.2-3.5-12-3.5-4-11-4-14.5 0-14.5 16v21.5q0 19.5 22.3 19.5 20.7 0 48.2-4.5v39.3q-8.5 3.7-24 6.7-15.2 3-31.7 3zm140.2 0q-35.5 0-55.5-18.5-20-18.7-20-54.5 0-35.7 20-54.2 20-18.8 55.5-18.8 35.3 0 50.8 18.5 15.7 18.3 15.7 45.5v18h-81v1.5q0 9.3 5.5 13.8 5.5 4.2 18.3 4.2 15.2 0 29-2.2 13.7-2.3 24-5.8v40q-8.8 4.8-25.8 8.8-16.7 3.7-36.5 3.7zm-14.5-91.5h29v-3q0-8.5-3.7-12.2-3.5-3.8-10.8-3.8-7.2 0-11 4-3.5 3.8-3.5 12zm195.3-54.5q5 0 9.5 1 4.5 1 7.5 2.5v47.8q-10.3-4.3-22-4.3-15.8 0-24.3 8.3-8.5 8.2-8.5 24.5v21.7h22.5v41h-91v-41h11v-57h-11v-41h68.5v18.3q7-10.5 16-16 9-5.8 21.8-5.8z"/>
	<path id=" Friendly" class="s1" aria-label="
Friendly"  d="m143.3 561h-92.2v-32.8h10v-90h-10v-32.8h119.6v51.8h-35.4v-19h-18.2v33.2h30.2v22.8h-30.2v34h26.2zm119.2-114q4 0 7.6 0.8 3.6 0.8 6 2v38.2q-8.2-3.4-17.6-3.4-12.6 0-19.4 6.6-6.8 6.6-6.8 19.6v17.4h18v32.8h-72.8v-32.8h8.8v-45.6h-8.8v-32.8h54.8v14.6q5.6-8.4 12.8-12.8 7.2-4.6 17.4-4.6zm70.4-8.2h-40.8v-33.4h40.8zm13.2 122.2h-63.6v-32.8h8.8v-45.6h-8.8v-32.8h54.8v78.4h8.8zm65.2 2.8q-28.4 0-44.4-14.8-16-15-16-43.6 0-28.6 16-43.4 16-15 44.4-15 28.2 0 40.6 14.8 12.6 14.6 12.6 36.4v14.4h-64.8v1.2q0 7.4 4.4 11 4.4 3.4 14.6 3.4 12.2 0 23.2-1.8 11-1.8 19.2-4.6v32q-7 3.8-20.6 7-13.4 3-29.2 3zm-11.6-73.2h23.2v-2.4q0-6.8-3-9.8-2.8-3-8.6-3-5.8 0-8.8 3.2-2.8 3-2.8 9.6zm194.8 37.6h8.8v32.8h-63.2v-32.8h8.4v-32.8q0-6.6-2.8-9.6-2.8-3.2-8.4-3.2-12 0-12 12.8v32.8h8.4v32.8h-63.2v-32.8h8.8v-45.6h-8.8v-32.8h54.8v15.6q14.4-18.4 36-18.4 16.6 0 24.8 10.4 8.4 10.4 8.4 28.6zm54.6 35.6q-20.4 0-30.8-15.2-10.2-15.2-10.2-43.2 0-28 10.2-43.2 10.4-15.2 30.8-15.2 10.2 0 18 5 8 5 13 11.4v-25.2h-11.8v-32.8h57.8v122.8h8.8v32.8h-54.8v-13.6q-5 6.4-13 11.4-7.8 5-18 5zm19.4-35.6q5.8 0 8.6-3 3-3.2 3-9.8v-20q0-6.6-3-9.6-2.8-3.2-8.6-3.2-5.8 0-8.8 3.2-2.8 3-2.8 9.6v20q0 6.6 2.8 9.8 3 3 8.8 3zm136.4 33h-63.6v-33h8.8v-90h-8.8v-32.8h54.8v122.8h8.8zm71.2-111.4h55.6v32.8h-7.6l-26.2 69.4q-9.8 26.2-22.4 39.4-12.6 13-33.2 13-8.4 0-17-1.6-8.6-1.8-15.6-4.8v-36.2h27.6v2q0 5 5.2 5 4.6 0 7-4.4l-31.6-81.8h-7.6v-32.8h59.4v32.8h-6.8l10.4 31.2 9.6-31.2h-6.8z"/>
	<path id="Fresh" class="s1" aria-label="Fresh"  d="m209.2 367h-115.2v-41h12.5v-112.5h-12.5v-41h149.5v64.8h-44.3v-23.8h-22.7v41.5h37.7v28.5h-37.7v42.5h32.7zm149-142.5q5 0 9.5 1 4.5 1 7.5 2.5v47.8q-10.2-4.3-22-4.3-15.7 0-24.2 8.3-8.5 8.2-8.5 24.5v21.7h22.5v41h-91v-41h11v-57h-11v-41h68.5v18.3q7-10.5 16-16 9-5.8 21.7-5.8zm99.5 146q-35.5 0-55.5-18.5-20-18.7-20-54.5 0-35.7 20-54.2 20-18.8 55.5-18.8 35.3 0 50.8 18.5 15.7 18.3 15.7 45.5v18h-81v1.5q0 9.3 5.5 13.8 5.5 4.2 18.3 4.2 15.2 0 29-2.2 13.7-2.3 24-5.8v40q-8.8 4.8-25.8 8.8-16.7 3.7-36.5 3.7zm-14.5-91.5h29v-3q0-8.5-3.7-12.2-3.5-3.8-10.8-3.8-7.2 0-11 4-3.5 3.8-3.5 12zm149.3 91.5q-31.5 0-60.8-10v-37h40.5v2.5q0 12 15.3 12 13.5 0 13.5-9.2 0-5-4-7.5-3.8-2.5-13.5-4.3l-12.5-2.2q-39.3-7-39.3-44.5 0-21.8 16.5-33.8 16.5-12 44.5-12 31.3 0 52.8 10.5v34.8h-38v-2.5q0-5-3.5-7.5-3.3-2.8-9.8-2.8-12.5 0-12.5 8 0 4.3 3.5 6.5 3.5 2.3 12.8 4.3l14.2 2.7q22.3 4.3 31.8 15.8 9.5 11.5 9.5 29.5 0 22.7-16 34.7-15.8 12-45 12zm224-44.5h11v41h-79v-41h10.5v-41q0-8.2-3.5-12-3.5-4-10.5-4-15 0-15 16v41h10.5v41h-79v-41h11v-112.5h-11v-41h68.5v75q9.2-11.5 20-17.2 10.7-5.8 25-5.8 20.7 0 31 13 10.5 13 10.5 35.8z"/>
</svg>